<?xml version="1.0" standalone="no"?>
<!DOCTYPE svg PUBLIC "-//W3C//DTD SVG 20010904//EN"
 "http://www.w3.org/TR/2001/REC-SVG-20010904/DTD/svg10.dtd">
<svg version="1.0" xmlns="http://www.w3.org/2000/svg"
 width="659.000000pt" height="296.000000pt" viewBox="0 0 659.000000 296.000000"
 preserveAspectRatio="xMidYMid meet">

<g transform="translate(0.000000,296.000000) scale(0.100000,-0.100000)"
fill="#000000" stroke="none">
<path d="M2680 1265 c0 -368 0 -375 20 -375 20 0 20 7 20 375 0 368 0 375 -20
375 -20 0 -20 -7 -20 -375z"/>
<path d="M2165 1514 c-6 -1 -26 -5 -46 -8 -20 -4 -56 -20 -80 -36 -43 -29 -44
-29 -64 -10 -32 31 -90 50 -148 50 -68 0 -111 -14 -160 -52 l-37 -29 -33 25
c-52 40 -101 56 -169 56 -100 0 -180 -52 -224 -145 -76 -161 46 -344 229 -345
64 0 130 26 167 65 l23 24 40 -34 c54 -46 96 -58 179 -53 58 5 78 11 115 37
41 29 47 31 62 17 59 -53 181 -71 256 -37 189 86 208 327 35 436 -34 22 -122
45 -145 39z m-657 -60 c20 -8 49 -27 64 -41 26 -24 26 -26 12 -65 -18 -53 -18
-115 2 -169 l15 -44 -33 -28 c-18 -15 -57 -35 -85 -43 -48 -14 -58 -14 -110 1
-63 18 -105 56 -134 120 -74 162 103 339 269 269z m419 -17 l42 -27 -20 -45
c-27 -61 -27 -140 0 -201 12 -25 21 -48 21 -50 0 -11 -92 -53 -126 -59 -151
-24 -278 141 -218 283 50 120 194 167 301 99z m310 -103 c41 -26 38 -97 -6
-131 -25 -20 -85 -15 -115 8 -50 39 -26 126 39 142 25 6 53 -1 82 -19z"/>
<path d="M1380 1380 c15 -28 -15 -40 -35 -14 -14 18 -14 17 -15 -9 0 -20 7
-31 26 -39 30 -14 74 -94 74 -136 0 -27 15 -52 33 -52 4 0 5 10 2 21 -10 31
16 44 32 16 11 -20 12 -20 18 -4 8 19 -19 57 -40 57 -18 0 -68 98 -62 122 7
26 -9 58 -29 58 -12 0 -13 -4 -4 -20z"/>
<path d="M1740 1265 c0 -41 2 -75 4 -75 2 0 39 16 82 36 l78 37 -74 38 c-41
21 -78 38 -82 39 -5 0 -8 -34 -8 -75z"/>
<path d="M2144 1328 c-64 -31 -34 -128 40 -128 27 0 66 41 66 70 0 19 -9 36
-26 49 -29 23 -48 25 -80 9z m56 -58 c0 -13 -7 -20 -19 -20 -22 0 -35 15 -26
30 12 19 45 11 45 -10z"/>
<path d="M2904 1437 c-2 -7 -3 -89 -2 -182 l3 -170 90 -3 c151 -4 196 33 202
170 5 97 -11 139 -66 175 -29 20 -47 23 -128 23 -67 0 -95 -4 -99 -13z m193
-87 c7 -14 13 -52 13 -85 0 -87 -14 -109 -73 -113 l-47 -3 0 116 0 116 47 -3
c39 -2 50 -7 60 -28z"/>
<path d="M3260 1282 c0 -208 -4 -202 128 -202 96 0 122 11 122 51 0 17 -8 19
-80 19 l-80 0 0 40 0 40 60 0 60 0 0 35 0 35 -60 0 -60 0 0 40 0 40 75 0 75 0
0 35 0 35 -120 0 -120 0 0 -168z"/>
<path d="M3570 1281 c0 -141 3 -172 16 -185 12 -12 37 -16 109 -16 86 0 95 2
109 22 30 43 22 48 -70 48 -74 0 -85 2 -80 16 3 9 6 26 6 39 0 22 5 24 58 27
56 3 57 3 57 33 0 30 -1 30 -57 33 -53 3 -58 5 -58 27 0 13 -3 30 -6 39 -5 13
7 16 73 18 l78 3 0 30 0 30 -117 3 -118 3 0 -170z"/>
<path d="M3880 1265 l0 -185 40 0 40 0 0 60 0 60 50 0 c43 0 56 5 87 34 32 29
37 39 37 83 2 100 -39 133 -168 133 l-86 0 0 -185z m158 97 c30 -38 -3 -102
-53 -102 -24 0 -25 2 -25 65 l0 65 33 -6 c17 -4 38 -14 45 -22z"/>
<path d="M4154 1436 c-14 -36 0 -51 49 -54 l47 -3 0 -150 0 -149 40 0 40 0 0
149 0 150 41 3 c45 3 67 24 56 52 -5 14 -25 16 -137 16 -105 0 -132 -3 -136
-14z"/>
<path d="M4460 1318 c0 -146 11 -184 62 -221 34 -25 120 -27 164 -4 53 27 64
67 64 221 l0 136 -45 0 -45 0 0 -140 c0 -136 -1 -140 -24 -155 -27 -18 -69 -7
-80 20 -3 9 -6 66 -6 126 0 130 -7 149 -55 149 l-35 0 0 -132z"/>
<path d="M4830 1264 l0 -186 105 4 c99 3 106 5 132 31 39 38 39 104 1 144 -26
28 -27 28 -7 52 21 26 25 62 9 92 -19 35 -64 49 -155 49 l-85 0 0 -186z m160
106 c17 -32 -4 -60 -45 -60 -34 0 -35 1 -35 40 0 39 1 40 35 40 24 0 37 -6 45
-20z m8 -142 c17 -17 15 -54 -4 -72 -8 -9 -31 -16 -50 -16 l-34 0 0 50 0 50
38 0 c21 0 43 -5 50 -12z"/>
<path d="M5160 1277 c0 -121 4 -177 12 -185 17 -17 189 -16 210 1 9 6 19 22
23 35 6 22 5 22 -79 22 l-86 0 0 40 0 40 59 0 c51 0 59 3 64 21 11 40 -1 49
-64 49 l-59 0 0 40 0 40 74 0 c66 0 74 2 79 21 12 45 2 49 -119 49 l-114 0 0
-173z"/>
</g>
</svg>
